<svg xmlns="http://www.w3.org/2000/svg" viewBox="0 0 858.43 333.42"><defs><style>.cls-1{font-size:165.81px;}.cls-1,.cls-11,.cls-7{fill:#001345;}.cls-1,.cls-11{font-family:MrDafoe-Regular, Mr Dafoe;}.cls-2{letter-spacing:0.02em;}.cls-3,.cls-5{fill:none;}.cls-4,.cls-9{fill:#ff8600;}.cls-5{stroke:#ff8600;stroke-linecap:round;stroke-linejoin:round;stroke-width:0;}.cls-6{fill:#fff;}.cls-8{fill:#156fa9;}.cls-9{font-size:52.69px;font-family:BebasNeueBold, Bebas Neue;letter-spacing:0.04em;}.cls-10{letter-spacing:0.03em;}.cls-11{font-size:62.42px;}.cls-12{letter-spacing:-0.04em;}.cls-13{letter-spacing:0.02em;}.cls-14{letter-spacing:0em;}.cls-15{letter-spacing:0em;}</style></defs><g id="Layer_2" data-name="Layer 2"><g id="Layer_1-2" data-name="Layer 1"><text class="cls-1" transform="translate(323.11 177.07)">No<tspan class="cls-2" x="137.78" y="0">n</tspan><tspan x="217.04" y="0">gsa</tspan></text><path class="cls-3" d="M201.32,196.93c-.7,0-2.79-8.94-2.95-17.11-2.88,6.89,0,17,0,17l.41,2.21a120.54,120.54,0,0,0-13.4-2.64c-.51-.06-2.36-3.47-4-6.31-.41-.73.42-8,.06-8.59-.63-1-2.35,4.82-2.56,4.8-.37,0,3.23,9.83,2.88,9.82l1.49,5.54-26.68,6.42,27.54-3.2c3.3,1,16.42-.88,16.42-.88l8.79-3.14,7.93-8.58c-4.06,4.11-8.12,6.8-12,8C202.44,201.22,205.88,197,201.32,196.93Z"/><path class="cls-3" d="M330.56,105c-.11-.34-.23-.67-.34-1-32,23.58-53.27,42.94-56.63,45.48,1.81,3.69-.9,7.42-.88,8.46s-24,21.27-35.24,30.13a7.11,7.11,0,0,1,5.11,1.85,15.06,15.06,0,0,1,1.13,1.34l1.83-2.12c5-5.74,12.5-14,22.48-24.17s22.46-22.09,37.45-35.06c8-6.93,16.77-14.14,26.24-21.46-.06-.12-.14-.22-.2-.34C331.1,107.17,330.93,106.05,330.56,105Z"/><path class="cls-3" d="M392.25,65.37c-.2-.69-.4-1.38-.57-2.05a703,703,0,0,0-59.19,39l.85,1.36c.48.8,1.09,1.53,1.55,2.29q11-8.37,23.19-16.84c10.78-7.44,22.33-14.84,34.57-22C392.52,66.55,392.43,65.94,392.25,65.37Z"/><path class="cls-3" d="M133.69,188.79a86.52,86.52,0,0,0-8.49-16.65S127.93,184.15,133.69,188.79Z"/><path class="cls-3" d="M470.07,29.89c-.21-.52-.27-1.16-.45-1.73s-.37-1.29-.53-1.89c-26.38,9.57-51.91,22.26-75.35,35.86.44.62.87,1.3,1.31,2a13.38,13.38,0,0,0,.84,1.14c9.59-5.54,19.59-10.94,30-16.09C438.49,43,451.66,37.2,465.39,32c1.6-.61,3.24-1.18,4.86-1.78A2.82,2.82,0,0,1,470.07,29.89Z"/><path class="cls-3" d="M612.48,5.72c.29-1.66.69-3.29.92-4.15-4.8.09-10.66.2-16.42.43-11.53.45-22.75,1.83-24.23,1.92-3,.3-21.71,2.41-29.5,3.36.15.91.33,2.11.44,3.31a2.91,2.91,0,0,0,0,.31c3.37-.55,6.75-1.05,10.15-1.48a350.34,350.34,0,0,1,47.57-3c3.6,0,7.2.12,10.81.25C612.34,6.35,612.43,6,612.48,5.72Z"/><path class="cls-3" d="M541.64,10.52c.19-1.13.44-2.25.65-3.12l-2,.26a422.94,422.94,0,0,0-45.68,10.46c-8.1,2.22-16.16,4.8-24.14,7.66.33.48.67,1,1,1.52s.77,1,1,1.48a3.16,3.16,0,0,1,.17.52q17.25-6.19,35.57-11c7.38-1.94,14.91-3.59,22.51-5.14,3.56-.66,7.13-1.31,10.72-1.91C541.53,11,541.6,10.77,541.64,10.52Z"/><path class="cls-4" d="M186,169.24c1.53.76,3.22,1.56,5,2.35C189.23,170.8,187.54,170,186,169.24Z"/><path class="cls-4" d="M132.12,250.72c-2.41-18.86-6.54-25.8-9.28-30.51C125.58,224.92,129.71,231.86,132.12,250.72Z"/><path class="cls-4" d="M108.06,254c6.33-.51,12.72-1.31,19-2.31-2.25-17.82-6-24.36-8.56-28.69l-.51-.88a5.12,5.12,0,0,1,.3-5.55c-.36-.28-.66-.52-.89-.67l-.35-.26a4.83,4.83,0,0,1-.93.12l-2.16.09a5.11,5.11,0,0,1-4.91-3.09l-4-9.34a32.71,32.71,0,0,1-6.23-29.54c2-7.71,9.47-12.19,16.37-14.74V159a5.11,5.11,0,0,1,2-3.23l1.66-1.25a12.34,12.34,0,0,1-.54-1.43,31.92,31.92,0,0,1-1-4.77c-3.77-3.64-4.94-12.1-4.75-13.77a5.7,5.7,0,0,1,2.33-4.05l-.41-7.6a5.25,5.25,0,0,1,.21-1.76,22.42,22.42,0,0,1,21.53-15.35,31.19,31.19,0,0,1,4,.28c13.68,1.9,18.77,11.1,20,17.59l4,2.45A5.05,5.05,0,0,1,166,128c.71,1.31,4.18,8,1.8,12.05a5.34,5.34,0,0,1-4.64,2.66,4.91,4.91,0,0,1-.86-.07,22.93,22.93,0,0,1-4.93-1.45,12.52,12.52,0,0,1-1.36,4.86c-.05.31-.1.82-.13,1.19a17.87,17.87,0,0,1-.93,4.75,29.82,29.82,0,0,1-1.46,3.21l.49.16a5.16,5.16,0,0,1,.77.31,6.24,6.24,0,0,1,.82.16,34.82,34.82,0,0,0,3.57.84h0l.14,0c1.23.21,3.3.32,5.48.44,7.21.38,12.56.84,15.87,3.24a90.34,90.34,0,0,0,10.2,5.46A81.85,81.85,0,1,0,108.06,254Z"/><path class="cls-5" d="M127.08,251.66c1.45-.24,2.9-.48,4.35-.74"/><path class="cls-6" d="M121.39,135.71l.28.59c0-.19,0-.38,0-.57Z"/><path class="cls-7" d="M430,253.89C281,233,199.43,286.55,199.43,286.55c115.06-32.66,167.41-12,203.22-3.36,156.69,37.95,296.68,60.47,377-21.24C674.57,317.44,549.81,270.72,430,253.89Z"/><path class="cls-8" d="M0,251.29c15,17,44,36.89,113.24,34.42,95.25-3.39,131.84-59.41,240.7-50.28-46.89-18.55-101.71-17.45-160.38-1.17-1.66.46-3.34.93-5,1.42q-7.94,2.31-16,5C161.69,244.28,86.24,285.89,0,251.29Z"/><path class="cls-7" d="M857.92,173.06a136.37,136.37,0,0,0-11.44-43.54,160.11,160.11,0,0,0-25.12-39.19,179.16,179.16,0,0,0-16.68-17,229.7,229.7,0,0,0-18.72-15,240.14,240.14,0,0,0-42-24.13,283.22,283.22,0,0,0-46.15-16,362.68,362.68,0,0,0-48-8.7c-11.7-1.35-23.4-2.32-35.08-2.81-.06-.31-.12-.63-.15-1-.16-1.7-.44-3.37-.6-4.23,8.19-.14,13.07-.19,8.63-.53C610.36.27,597.1-.27,583.08.14L572.41.45l-10.9.82L556,1.69c-1.85.17-3.71.42-5.58.63L539.06,3.67a421.9,421.9,0,0,0-46.34,9.44,438.24,438.24,0,0,0-46.34,15.52c-15.22,6.09-30,13.15-44.35,20.58S374.09,64.8,361.21,73.13c-11.72,7.62-22.7,15.52-33,23.31l-.19.09v0l-2.83,2.14c-11.15,8.51-21.43,16.86-30.78,24.72s-17.76,15.23-25.17,21.8l0,0a4.52,4.52,0,0,0-5.47-.15c-2.16,1.37-8,7.21-12.9,12.38-6.54-1.51-10.37,3.55-13.24,8.56a185.63,185.63,0,0,1-27.94,11.57,87,87,0,0,1-18.64-6c-1.8-.79-3.49-1.59-5-2.35l-.07,0c-.35-.18-.7-.35-1-.53l-.1-.05-1-.49-.09,0-.92-.48-.05,0c-.94-.5-1.79-1-2.5-1.38l0,0c-.21-.11-.4-.23-.59-.34l-.16-.09-.4-.24-.18-.11-.31-.18-.16-.1-.24-.15-.14-.09-.19-.12-.09-.06-.19-.13c-3.46-2.5-14.48-2-19.19-2.77a40.53,40.53,0,0,1-4.27-1c-.46,1.45-1,3.16-1.52,4.62a4.38,4.38,0,0,0,2.27-.57c1-.72,3,2.1,3,2.1l.37-5.19a7,7,0,0,1,1,4.05c-.16,2.33-.64,6.33-.64,6.33s-1.77-4.73-3.37-5.29-2.72,1.2-2.72,1.2l-1,.73.94-8.49c-2.43-.77-4.25-1.5-4.25-1.5a11.78,11.78,0,0,1-1.05-2.9,29.13,29.13,0,0,0,3-5.69c.84-2.2.41-5.25,1.34-6.56.7-1,1-4.45,1.11-8.43a4,4,0,0,1,1.77-.3c2.81.35,5.58,2.21,8.73,2.72,1,.15.16-3.92-1.6-7.12l-6.12-3.76s0-13.37-15.84-15.56-20,11.47-20,11.47l.65,12.16c-1-.32-2.49-.61-2.6.33-.16,1.44,1.6,8.81,3.52,9.77a5,5,0,0,0,.93.34,32.67,32.67,0,0,0,1.13,6.38,7.67,7.67,0,0,0,2.59,3.65c1.3,2.91,2.92,6.58,3.06,7,.28.89,6.43,3.9,14,7.05h0a5.39,5.39,0,0,1,2.63,1.1h0s6.63,3.16,6.95,3.27,4.38,13.55,4.38,13.55L150.18,175l-6.73-3.8c-1.72-.37-3.58-.58-4.32,0-1.52,1.12-1.36,6.8-1.36,6.8s-11.05-6.88-14-11.61l12.09,8.41s-.08-3.84,1.76-4.24c.31-.07,2.23-.66,3.7-1-7.1-1.69-13.82-5.54-16.55-7,0,0-1.75-2.39-.6-3.46s-.39-1.87-.39-1.87l-3.54,2.67L119.7,163c-5.53,1.67-14.16,5.32-15.94,12.15-2.65,10.21.13,19.18,5.67,25.51l4.34,10,2.16-.09s-1.13-12.38,5.59-15.1c-5.29,8.46-2.25,15.42-1.21,16.13,3.66,2.5,13.46,12.48,28.77,15.94.43.1.87.18,1.31.25l.43,0c.31.05.62.08.93.11l.5,0,.91.06H155c1,0,2-.08,3-.16l.26,0,1.34-.13.2,0c2.89-.31,5.91-.77,9.06-1.13H169l1.42-.15c1.66-.16,3.36-.29,5.09-.34a9.89,9.89,0,0,0,1.75.33c-2.47.25-5.17.72-8,1.28h0c-4.86,1-10,2.18-14.59,2.92l-.29,0-1.68.24-.5.06c-.52.07-1,.12-1.54.16l-.37,0c-.61.05-1.21.08-1.79.1a2.81,2.81,0,0,1-.29,0c-.46,0-.91,0-1.34,0l-.5,0c-.37,0-.73-.06-1.08-.1-.15,0-.3,0-.44-.06a10.55,10.55,0,0,1-1.34-.29c-11.53-3.36-15.52-6.15-21-11.29l.38.67c2.74,4.71,6.87,11.65,9.28,30.51,0,0,0,.05,0,.08a298.77,298.77,0,0,0,40.46-10.15q8-2.67,16-5l-.92-10.42-.76.1c12.07-3,15.62-6.17,19.1-6.44a121.84,121.84,0,0,0,13.35-2.35s1.73,4.49,5.1,3.45,4.15-2.29,4.15-2.29l4.68-1.12,4.68-8.15c10.29-5.59,9-12.73,5.83-17.13l1.87-2.11c5.06-5.69,12.63-13.91,22.71-23.93s22.66-21.85,37.75-34.66c8.05-6.8,16.83-13.89,26.29-21.1.24.33.5.64.74.92a10.88,10.88,0,0,0,1.62,1.42,5.55,5.55,0,0,0,.77.47l.35-.16a5.62,5.62,0,0,0,.13-.9,10.3,10.3,0,0,0-.08-2.15,10.88,10.88,0,0,0-.45-1.93q11.1-8.36,23.45-16.84c10.75-7.33,22.26-14.62,34.45-21.69a7.6,7.6,0,0,0,.87,1,7.13,7.13,0,0,0,1.43,1.07,5.06,5.06,0,0,0,.7.34l.35-.16a5.07,5.07,0,0,0,.2-.75,7.18,7.18,0,0,0,.13-1.78,7,7,0,0,0-.31-1.69c9.6-5.47,19.59-10.8,30-15.87a468.23,468.23,0,0,1,45.13-19,4.86,4.86,0,0,0,.54.29l.24-.11a5,5,0,0,0,.12-.5c11.64-4.15,23.65-7.89,36-11.06,7.35-1.92,14.83-3.55,22.39-5.07q5.12-.95,10.27-1.81c0,.07,0,.15,0,.22a4.68,4.68,0,0,0,.84,1.53h.26a4.58,4.58,0,0,0,.95-1.47,4.39,4.39,0,0,0,.23-.67c3.45-.55,6.91-1.06,10.39-1.49a344.32,344.32,0,0,1,47.26-2.9c3.64,0,7.29.13,10.95.27a4.68,4.68,0,0,0,.81,1.45h.25a4.82,4.82,0,0,0,.92-1.38c11.67.5,23.4,1.5,35.1,2.86a376.34,376.34,0,0,1,47.7,8.67,280.76,280.76,0,0,1,45.77,15.75,237.1,237.1,0,0,1,41.65,23.82A223.85,223.85,0,0,1,803.17,75.1a177.83,177.83,0,0,1,16.47,16.71,157.82,157.82,0,0,1,24.84,38.6,136.08,136.08,0,0,1,11.42,42.83,126.75,126.75,0,0,1-3.11,42.34,131.31,131.31,0,0,1-15.63,37.1,132.73,132.73,0,0,1-11.22,15.64,142.28,142.28,0,0,1-12.69,13.52c-17.75,16.62-37.62,27.56-55.93,34.85A233.89,233.89,0,0,1,708,329.93c-3.51.59-6.85.95-10,1.4l-8.85.91-7.63.58-6.36.3c-3.8.22-6.72.17-8.69.24l-3,.06,3,0c2-.05,4.89,0,8.7-.16l6.36-.25,7.65-.5,8.86-.84c3.13-.42,6.48-.75,10-1.31a234.15,234.15,0,0,0,49.62-12.82,193.52,193.52,0,0,0,28.45-13.74c2.43-1.36,4.76-3,7.19-4.46,2.34-1.65,4.79-3.2,7.1-5a153.52,153.52,0,0,0,13.82-11.45,143.81,143.81,0,0,0,12.89-13.59,134.9,134.9,0,0,0,11.42-15.75,132.77,132.77,0,0,0,16-37.51A128.68,128.68,0,0,0,857.92,173.06ZM121.39,135.71l.26,0c0,.19,0,.38,0,.57Zm3.81,36.43a86.52,86.52,0,0,1,8.49,16.65C127.93,184.15,125.2,172.14,125.2,172.14Zm84.13,28.75L200.54,204s-13.12,1.86-16.42.88l-27.54,3.2,26.68-6.42-1.49-5.54c.35,0-3.25-9.84-2.88-9.82.21,0,1.93-5.84,2.56-4.8.36.59-.47,7.86-.06,8.59,1.61,2.84,3.46,6.25,4,6.31a120.54,120.54,0,0,1,13.4,2.64l-.41-2.21s-2.86-10.15,0-17c.16,8.17,2.25,17.1,2.95,17.11,4.56.07,1.12,4.29,3.89,3.42,3.93-1.24,8-3.93,12-8Zm96.14-71c-15,13-27.46,24.94-37.45,35.06s-17.47,18.43-22.48,24.17l-1.83,2.12a15.06,15.06,0,0,0-1.13-1.34,7.11,7.11,0,0,0-5.11-1.85c11.26-8.86,35.27-29.07,35.24-30.13s2.69-4.77.88-8.46c3.36-2.54,24.62-21.9,56.63-45.48.11.34.23.67.34,1,.37,1,.54,2.16.95,3.1.06.12.14.22.2.34C322.24,115.77,313.48,123,305.47,129.91Zm52.61-40.76Q345.84,97.6,334.89,106c-.46-.76-1.07-1.49-1.55-2.29l-.85-1.36a703,703,0,0,1,59.19-39c.17.67.37,1.36.57,2.05s.27,1.18.4,1.75C380.41,74.31,368.86,81.71,358.08,89.15Zm67.84-40c-10.44,5.15-20.44,10.55-30,16.09a13.38,13.38,0,0,1-.84-1.14c-.44-.67-.87-1.35-1.31-2,23.44-13.6,49-26.29,75.35-35.86.16.6.34,1.25.53,1.89s.24,1.21.45,1.73a2.82,2.82,0,0,0,.18.29c-1.62.6-3.26,1.17-4.86,1.78C451.66,37.2,438.49,43,425.92,49.15Zm104.83-36c-7.6,1.55-15.13,3.2-22.51,5.14q-18.3,4.77-35.57,11a3.16,3.16,0,0,0-.17-.52c-.25-.51-.7-1-1-1.48s-.67-1-1-1.52c8-2.86,16-5.44,24.14-7.66A422.94,422.94,0,0,1,540.3,7.66l2-.26c-.21.87-.46,2-.65,3.12,0,.25-.11.5-.17.74C537.88,11.86,534.31,12.51,530.75,13.17Zm23.13-3.75c-3.4.43-6.78.93-10.15,1.48a2.91,2.91,0,0,1,0-.31c-.11-1.2-.29-2.4-.44-3.31,7.79-1,26.48-3.06,29.5-3.36C574.23,3.83,585.45,2.45,597,2c5.76-.23,11.62-.34,16.42-.43-.23.86-.63,2.49-.92,4.15-.05.32-.14.63-.22.94-3.61-.13-7.21-.22-10.81-.25A350.34,350.34,0,0,0,553.88,9.42Z"/><text class="cls-9" transform="translate(492.29 105.99)">POKMAS<tspan class="cls-10" x="145.11" y="0">W</tspan><tspan x="176.09" y="0">AS</tspan></text><text class="cls-11" transform="translate(565.24 235.47)">Batu <tspan class="cls-12" x="127.84" y="0">B</tspan><tspan class="cls-13" x="168.16" y="0">e</tspan><tspan class="cls-14" x="192.19" y="0">s</tspan><tspan class="cls-15" x="213.92" y="0">a</tspan><tspan x="238.14" y="0">r</tspan></text></g></g></svg>